<svg width="35" height="40" viewBox="0 0 35 40" fill="none" xmlns="http://www.w3.org/2000/svg">
<path d="M22.837 26.4687C22.9335 26.3066 23.0397 26.1568 23.4608 26.2423C23.4614 26.2459 23.4619 26.2495 23.4624 26.2531C25.7816 25.2327 27.3984 22.9375 27.3984 20.2692C27.3984 19.9477 27.3729 19.6316 27.3275 19.3225L27.3291 19.3197C27.3291 19.3192 27.329 19.3201 27.3289 19.3197C27.084 19.2127 27.0644 19.0768 27.1996 18.6746C27.1996 18.6746 27.1997 18.6743 27.1998 18.6741C26.5071 15.9424 24.0766 13.891 21.1351 13.7311C21.1341 13.731 21.1331 13.731 21.1321 13.731C20.8264 13.7372 20.9411 13.9095 20.3942 13.7311C20.3937 13.7311 20.393 13.7311 20.3924 13.7312C16.9018 13.9218 14.1309 16.7759 14.1309 20.2692C14.1309 21.3902 14.4164 22.4453 14.9192 23.3677C14.9195 23.3682 14.9197 23.3687 14.9199 23.369C15.1036 23.5578 15.1937 23.4691 15.3209 24.0042C15.3219 24.0082 15.3229 24.012 15.3238 24.0162C16.523 25.7098 18.5126 26.8178 20.7645 26.8178C21.4883 26.8178 22.1847 26.7029 22.8367 26.4915L22.837 26.4687Z" fill="#ABC71A"/>
<path d="M27.2032 18.6724C24.923 19.5876 23.3696 21.3497 22.8741 23.6335C22.6704 24.5725 22.6604 25.5748 22.8404 26.4935H22.8405C22.937 26.3314 23.0434 26.1682 23.4647 26.2537C23.4651 26.2535 23.4655 26.2523 23.4659 26.252C23.0154 23.6103 24.1543 20.6521 27.3326 19.3208C27.3326 19.3204 27.3325 19.3196 27.3324 19.3192C27.0876 19.2121 27.0679 19.0746 27.2032 18.6724Z" fill="white"/>
<path d="M15.3217 24.0042C16.2701 23.9443 17.2166 23.6777 18.1032 23.2165C19.2696 22.6097 20.2495 21.711 20.9368 20.6176C22.25 18.5285 22.3121 16.0549 21.1358 13.7311C21.1347 13.731 21.1337 13.731 21.1327 13.731C20.8271 13.7372 20.9417 13.9095 20.3949 13.7311C20.3943 13.7311 20.3937 13.7312 20.3931 13.7312C23.1798 18.7192 19.1463 23.3589 14.9199 23.3678C14.9201 23.3682 14.9204 23.3687 14.9206 23.3691C15.1042 23.5578 15.1944 23.469 15.3217 24.0042Z" fill="white"/>
<path d="M23.9428 22.2481C23.3378 23.4432 23.1295 24.8532 23.353 26.2236C23.3883 26.2277 23.4254 26.2331 23.4664 26.2415C23.0214 23.6032 24.161 20.6524 27.3335 19.3229C27.3334 19.3225 27.3334 19.3221 27.3333 19.3217L27.3341 19.3203C27.2881 19.3001 27.25 19.2788 27.2194 19.2549C25.746 19.89 24.6135 20.923 23.9428 22.2481Z" fill="#C7C8CA"/>
<path d="M22.8405 26.4665C22.8659 26.4237 22.8922 26.382 22.9246 26.3451C22.7729 25.4766 22.7922 24.5272 22.9811 23.6561C23.4613 21.4431 24.9444 19.7246 27.161 18.8073C27.1727 18.7659 27.1867 18.7211 27.2031 18.6724C24.923 19.5876 23.3695 21.3497 22.8741 23.6335C22.6707 24.5711 22.6604 25.5718 22.8396 26.4894C22.8398 26.4893 22.8401 26.4893 22.8404 26.4891L22.8405 26.4665Z" fill="#BCBEC0"/>
<path d="M20.9387 20.6176C22.2518 18.5285 22.3139 16.0549 21.1377 13.7311C21.1366 13.731 21.1356 13.731 21.1346 13.731C21.0922 13.7319 21.0581 13.736 21.0289 13.7419C21.0302 13.7546 21.0335 13.7674 21.0397 13.7795C22.21 16.0915 22.1411 18.4998 20.8457 20.5606C20.1686 21.6377 19.2032 22.523 18.0541 23.1208C17.1794 23.5759 16.2582 23.8368 15.3165 23.8963C15.3097 23.8968 15.3033 23.898 15.2969 23.8996C15.3057 23.9316 15.3145 23.9661 15.3235 24.0043C16.2719 23.9443 17.2185 23.6777 18.1051 23.2166C19.2715 22.6096 20.2513 21.711 20.9387 20.6176Z" fill="#C7C8CA"/>
<path d="M20.549 20.2153C21.1017 19.2889 21.4038 18.2307 21.4227 17.1743C21.4431 16.0339 21.1456 14.8907 20.5404 13.7744C20.4978 13.7631 20.4498 13.7489 20.3949 13.731C20.3943 13.731 20.3937 13.731 20.3931 13.731C23.1798 18.719 19.1463 23.3587 14.9199 23.3675C14.9201 23.3681 14.9204 23.3685 14.9206 23.3689C14.9789 23.4289 15.0279 23.4609 15.0716 23.4938C17.2559 23.4367 19.3928 22.1529 20.549 20.2153Z" fill="#BCBEC0"/>
<path d="M3.71484 8.67941H34.0804C34.8878 5.4798 29.9653 -0.51613 20.1253 0.0356005C10.2852 0.587331 5.88089 5.67552 3.71484 8.67941Z" fill="#4CDAFF"/>
<path d="M28.3398 16.7372C32.1926 15.4191 33.7732 10.818 34.0819 8.68213H3.70456C1.03727 11.7577 0.123484 17.5439 0 20.0459L12.4103 20.0325C12.5337 17.5916 14.0773 12.5632 19.2637 11.9774C24.4501 11.3915 27.4755 14.9065 28.3398 16.7372Z" fill="#00CDFF"/>
<path d="M3.69531 31.4102H34.0808C34.8873 34.5768 29.7459 40.5109 19.9163 39.9649C10.0867 39.4189 5.85907 34.3831 3.69531 31.4102Z" fill="#022775"/>
<path d="M28.3384 23.3431C32.1921 24.6627 33.7731 29.2694 34.0819 31.4077H3.69682C1.02886 28.3285 0.123516 22.5489 0 20.0439H12.4048C12.5282 22.4877 14.0723 27.522 19.2599 28.1085C24.4476 28.6951 27.4738 25.176 28.3384 23.3431Z" fill="#003399"/>
</svg>
